<?xml version="1.0" encoding="UTF-8"?>
<svg version="1.1" viewBox="0 0 2048 1595" width="566" height="441" xmlns="http://www.w3.org/2000/svg">
<path transform="translate(968,481)" d="m0 0h69l44 3 39 5 45 9 25 7 21 8 19 10 15 11 11 10 10 13 8 16 3 12v20l-4 25-19 87-8 36-8 35-7 31-9 39-9 42-12 55-6 28-16 72-14 64-10 43-5 24-7 21-7 14-10 15-8 10-9 9-10 7-14 8-22 9-26 6-26 3h-22l-27-3-24-8-19-9-18-13-16-16-9-12-9-14-6-15-9-32-13-57-7-30-6-28-6-26-9-43-10-47-8-33-5-24-10-45-4-16-6-30-11-48-7-34-6-27-8-33-8-40v-22l3-14 8-16 7-10 12-11 13-9 16-9 21-8 19-6 44-9 25-4 34-4zm-7 49-28 2-45 6-55 11-22 6-13 6-9 6-7 8-4 9-1 5v14l6 32 15 64 7 33 11 48 12 55 13 58 9 41 9 42 12 53 9 43 13 55 8 42 5 16 7 11 7 10 15 12 15 9 10 5 16 5 12 2h31l15-2 21-7 18-10 11-9 7-8 8-16 5-16 7-30 9-40 14-61 14-65 11-50 9-39 9-42 15-69 7-30 9-41 7-36 11-48 2-9v-20l-4-10-7-9-9-7-16-8-11-4-13-4-16-4-18-4-20-4-37-5-10-1-23-1z" fill="#EC9016"/>
<path transform="translate(429,879)" d="m0 0 2 1 5 13 8 16 4 9v5l-8 10-16 17-7 8-12 14-16 24-13 21-10 19-12 27-14 37-11 34-7 31-5 35-2 25v28l2 20 7 36 7 24 9 25 10 21 9 15 9 12 11 12 8 7 10 6 14 5 5 1h13l12-4 13-7 9-10 10-19 8-21 9-20 11-18 10-15 12-15 7-8 13-13 17-13 16-11 17-10 24-10h9l6 2 9 13 12 17 1 5-10 5-12 4-23 11-18 11-14 11-11 10-8 7-11 14-8 13-12 25-8 20-8 18-7 13-9 10-5 6-14 11-17 9-17 6-18 2-19-1-13-4-17-7-15-9-11-9-14-14-13-17-12-20-10-19-11-27-9-30-7-27-4-26-1-11v-62l4-34 4-23 9-35 10-29 10-25 11-25 12-25 13-23 11-17 12-17 14-19 11-13 9-11h2l2-4 16-15z" fill="#EC9016"/>
<path transform="translate(1613,475)" d="m0 0h10l8 4 5 7 1 5v273l-2 20-4 14-10 26-10 20-11 18-12 19-15 26-10 17-11 18-15 26-30 50-14 24-9 15-6 11-13 22-9 15-14 24-8 14-9 15-26 44-10 16-11 12-8 8-13 10-16 8-17 4-22 3-12 1h-21l-22-2-25-4-20-6-6-5-2-5 1-11 6-23 2-3 19 4 19 5 27 5 24 1 16-2 14-4 15-8 10-9 9-11 12-20 8-13 12-20 8-13 8-15 14-23 8-13 13-24 12-20 8-13 8-14 17-28 15-25 13-22 8-14 8-13 15-26 7-11 12-20 10-17 10-18 8-16 5-15 3-17 1-12 1-256 5-8z" fill="#0497F2"/>
<path transform="translate(671,636)" d="m0 0 5 1 2 14 2 20v11l-3 3-13 5-11 4-20 9-22 12-21 11-17 11-19 14-16 13-13 13-8 11-3 10v13l4 14 8 16 12 23 13 23 14 26 12 21 16 30 30 54 12 22 14 26 12 22 45 84 7 12 11 12 8 6 11 5 25 5 9 1 32 1 3 7 3 10 7 16 1 8-15 4-12 2-12 1h-22l-18-2-20-5-18-10-11-8-15-15-5-8-7-10-12-21-12-22-13-23-11-22-9-16-12-22-16-29-12-23-10-18-12-23-12-22-12-21-12-22-15-28-13-23-8-16-9-19-5-17v-22l3-12 6-15 10-16 11-13 16-16 14-11 17-13 20-13 23-13 17-9 25-11 26-11z" fill="#EC9016"/>
<path transform="translate(1634,914)" d="m0 0 3 1 8 11 11 13 13 16 11 15 8 13 12 20 10 18 19 41 11 28 8 24 9 37 6 37 1 12v78l-3 23-5 24-7 26-11 27-11 21-7 10-4 6-10 13-11 12-8 8-8 7-16 12-18 10-23 7-15 1-17-3-12-3-12-6-14-9-10-9-7-7-6-9-10-22-7-19-4-11-11-21-9-14-7-9-12-14-14-13-12-9-23-13-16-7-1-4 11-20 7-11 3-3 5 1 18 8 14 8 11 8 12 9 16 15 9 9 9 11 13 18 9 15 12 25 13 34 7 10 6 7 16 8 10 2h13l12-3 15-9 11-9 10-9 8-9 9-13 9-15 9-19 10-31 7-30 4-29 1-11v-31l-2-26-5-29-7-29-5-15-6-19-11-29-9-20-10-19-14-23-9-14-14-21-9-11-9-10-1-4 6-10 6-8 4-8z" fill="#0497F2"/>
<path transform="translate(1499,276)" d="m0 0 9 1 6 4 4 7 1 4 1 27v369l-2 10-7 8-6 3h-9l-5-3-6-5-2-5v-399l2-10 4-6 7-4z" fill="#0497F2"/>
<path transform="translate(1294,265)" d="m0 0h82l14 1 2 5 1 61v25l-2 2-10 1h-87l-2-2v-90z" fill="#0497F2"/>
<path transform="translate(1457,106)" d="m0 0h73l5 3v73l-4 1h-70l-4-1-1-4v-71z" fill="#0497F2"/>
<path transform="translate(1354,445)" d="m0 0h7l8 4 6 6v128l-3 9-5 4-6 2-10-1-6-3-3-4-1-6v-30l1-97 3-6z" fill="#0497F2"/>
<path transform="translate(1607,327)" d="m0 0 39 1 11 1 1 1 1 9 1 47-2 2h-33l-19-1-3-1-1-3v-50l1-5z" fill="#0497F2"/>
</svg>
